<?xml version="1.0" standalone="no"?>
<!DOCTYPE svg PUBLIC "-//W3C//DTD SVG 20010904//EN"
 "http://www.w3.org/TR/2001/REC-SVG-20010904/DTD/svg10.dtd">
<svg version="1.0" xmlns="http://www.w3.org/2000/svg"
 width="3888.000000pt" height="3172.000000pt" viewBox="0 0 3888.000000 3172.000000"
 preserveAspectRatio="xMidYMid meet">

<g transform="translate(0.000000,3172.000000) scale(0.100000,-0.100000)"
fill="#000000" stroke="none">
<path d="M10300 26233 c-25 -2 -104 -12 -176 -23 -438 -66 -835 -231 -1194
-498 -140 -104 -396 -358 -498 -495 -285 -379 -459 -806 -519 -1272 -17 -134
-18 -518 -18 -9255 0 -8748 1 -9120 18 -9250 110 -817 564 -1515 1249 -1922
285 -168 557 -270 903 -336 l140 -26 9180 -3 c8232 -3 9192 -2 9300 12 431 56
795 190 1147 424 624 416 1034 1076 1135 1831 17 129 18 511 18 9280 l0 9145
-23 155 c-104 702 -472 1319 -1031 1728 -344 251 -705 403 -1143 480 l-153 27
-9145 1 c-5030 0 -9165 -1 -9190 -3z m2971 -2039 c240 -33 416 -114 573 -263
124 -118 212 -283 237 -443 18 -117 6 -333 -25 -450 -47 -176 -74 -235 -321
-693 -56 -104 -158 -293 -225 -420 -68 -126 -184 -342 -258 -480 -215 -399
-354 -681 -400 -810 -207 -595 -119 -1119 250 -1471 261 -248 609 -385 1019
-401 484 -19 1002 156 1399 473 121 97 296 270 387 384 156 193 230 316 518
855 71 132 144 269 163 305 19 36 81 151 137 255 56 105 155 289 220 410 112
210 287 535 528 985 60 113 122 228 137 255 15 28 87 163 160 300 260 488 306
559 475 734 356 368 801 537 1254 477 205 -27 375 -97 519 -212 138 -111 222
-232 278 -404 25 -79 27 -97 28 -250 0 -140 -4 -178 -23 -255 -51 -199 -76
-254 -318 -705 -58 -107 -126 -233 -151 -280 -25 -47 -60 -112 -77 -145 -18
-33 -85 -159 -150 -280 -65 -121 -181 -337 -258 -480 -76 -143 -160 -298 -185
-345 -25 -47 -57 -107 -72 -135 -15 -27 -47 -88 -72 -135 -25 -47 -111 -206
-191 -355 -79 -148 -194 -362 -254 -475 -61 -113 -180 -335 -266 -495 -539
-1005 -567 -1062 -638 -1278 -68 -209 -84 -313 -83 -537 1 -185 2 -201 32
-315 108 -412 413 -723 853 -869 199 -66 305 -81 559 -81 242 1 353 15 555 71
552 155 1054 554 1386 1099 22 37 106 190 186 339 80 149 177 330 216 401 38
72 120 225 182 340 62 116 147 274 189 353 42 78 109 204 150 280 477 889 509
949 661 1232 43 80 128 240 190 355 238 445 269 502 313 580 71 126 223 350
318 470 114 144 388 417 539 537 413 330 906 555 1435 657 261 50 425 65 710
64 642 -1 1256 -149 1874 -452 393 -192 637 -407 826 -725 209 -351 257 -812
121 -1161 -115 -298 -363 -506 -659 -554 -90 -15 -285 -5 -382 19 -209 51
-275 80 -728 324 -147 79 -429 230 -627 336 -198 106 -414 222 -479 258 -577
314 -845 403 -1211 405 -223 0 -373 -33 -560 -124 -373 -182 -636 -578 -707
-1064 -18 -128 -16 -415 5 -549 102 -649 480 -1208 1082 -1601 61 -40 202
-121 315 -182 333 -179 879 -472 1115 -598 121 -65 247 -132 280 -150 33 -18
218 -117 410 -220 1433 -768 1396 -747 1510 -823 137 -91 365 -319 457 -457
396 -594 326 -1353 -156 -1684 -120 -83 -253 -122 -436 -128 -155 -6 -259 9
-405 59 -151 51 -233 92 -940 473 -104 56 -221 119 -260 140 -38 20 -162 87
-275 147 -113 61 -266 143 -340 183 -74 40 -259 139 -410 220 -151 81 -365
196 -475 255 -110 59 -324 174 -475 255 -151 81 -336 180 -410 220 -74 40
-229 123 -345 185 -747 401 -812 434 -1016 505 -573 199 -1100 105 -1450 -261
-341 -357 -474 -911 -358 -1489 54 -267 188 -577 347 -805 192 -275 465 -531
760 -713 50 -31 207 -119 349 -195 321 -173 770 -414 968 -519 155 -83 1196
-640 1695 -908 157 -84 413 -221 570 -306 157 -84 337 -184 400 -222 562 -341
984 -784 1273 -1337 140 -267 250 -577 311 -880 163 -798 49 -1679 -322 -2495
-148 -324 -277 -520 -463 -700 -197 -191 -384 -305 -631 -385 -143 -47 -284
-64 -473 -57 -140 5 -174 9 -270 37 -324 94 -547 300 -635 585 -56 184 -40
443 41 665 49 133 83 199 521 1015 39 72 126 234 194 361 68 128 163 305 211
395 49 90 109 207 134 259 260 539 287 1035 77 1432 -184 347 -549 589 -1008
669 -95 17 -164 22 -290 22 -331 0 -603 -63 -907 -208 -334 -160 -598 -371
-838 -670 -129 -161 -199 -273 -385 -620 -62 -115 -176 -327 -253 -470 -76
-143 -160 -298 -185 -345 -25 -47 -57 -107 -72 -135 -15 -27 -47 -88 -72 -135
-25 -47 -94 -175 -153 -285 -59 -110 -124 -231 -145 -270 -100 -187 -287 -536
-410 -765 -75 -140 -190 -354 -255 -475 -188 -353 -310 -522 -490 -679 -166
-145 -349 -251 -540 -314 -181 -59 -234 -67 -455 -67 -181 0 -202 2 -292 27
-201 56 -353 142 -471 268 -150 158 -215 314 -224 541 -11 245 51 451 238 799
31 58 125 233 209 390 84 157 183 341 220 410 37 69 120 224 185 345 65 121
148 276 185 345 37 69 152 283 255 475 226 423 533 994 625 1165 37 69 88 163
112 210 25 47 126 234 223 415 97 182 199 371 225 420 106 199 183 402 232
615 30 127 32 148 32 335 0 187 -1 207 -27 308 -117 452 -439 765 -937 911
-285 83 -686 82 -998 -5 -596 -165 -1082 -546 -1431 -1122 -49 -80 -101 -176
-446 -822 -62 -115 -146 -273 -187 -350 -128 -238 -597 -1112 -675 -1260 -42
-77 -92 -171 -113 -210 -21 -38 -72 -134 -114 -212 -42 -79 -109 -205 -150
-280 -40 -76 -126 -237 -191 -358 -64 -121 -149 -276 -188 -345 -561 -994
-1466 -1603 -2582 -1738 -199 -24 -677 -23 -869 1 -542 68 -1052 226 -1525
473 -217 113 -344 208 -507 376 -237 247 -376 523 -419 838 -43 310 14 599
160 815 236 350 628 463 1084 313 99 -32 354 -158 681 -335 102 -55 223 -120
270 -145 172 -92 641 -344 850 -456 230 -124 309 -162 462 -223 89 -35 280
-91 353 -103 480 -78 859 28 1155 324 207 206 343 486 397 815 24 148 24 417
0 575 -87 564 -395 1075 -880 1458 -144 114 -314 219 -617 379 -119 63 -346
184 -515 275 -71 39 -166 89 -210 113 -94 50 -598 320 -700 375 -341 182
-1038 555 -1295 693 -415 221 -479 259 -615 367 -92 73 -260 254 -331 355
-105 152 -200 369 -239 551 -22 98 -31 351 -16 455 50 355 235 626 514 754
267 122 610 90 969 -91 40 -20 159 -83 263 -139 293 -158 715 -384 1100 -590
193 -103 377 -202 410 -220 33 -18 188 -101 345 -185 157 -84 407 -218 555
-297 149 -80 304 -164 345 -186 41 -22 137 -73 213 -113 230 -124 419 -225
482 -259 833 -449 926 -492 1230 -560 145 -33 379 -44 518 -26 556 74 963 506
1074 1141 25 146 25 451 0 605 -109 656 -507 1228 -1123 1612 -68 43 -220 126
-584 321 -47 25 -107 57 -135 72 -27 15 -178 96 -335 180 -295 158 -323 173
-905 485 -192 103 -417 224 -500 268 -82 44 -172 92 -200 107 -45 25 -388 209
-760 408 -603 322 -676 366 -916 552 -222 172 -388 333 -575 562 -282 345
-509 801 -623 1253 -75 299 -105 556 -105 900 -1 425 59 810 189 1225 103 329
286 737 423 940 257 384 643 649 1041 715 47 8 97 16 111 18 60 10 208 6 311
-9z"/>
</g>
</svg>
